<svg xmlns="http://www.w3.org/2000/svg" viewBox="0 0 400 180">
  <defs>
    <linearGradient id="g" x1="0" y1="0" x2="1" y2="1">
      <stop offset="0" stop-color="#9c4a00"/>
      <stop offset="1" stop-color="#ea7600"/>
    </linearGradient>
  </defs>
  <rect width="400" height="180" fill="url(#g)"/>
  <circle cx="345" cy="145" r="82" fill="#ffffff" opacity="0.06"/>
  <circle cx="70" cy="28" r="44" fill="#ffffff" opacity="0.06"/>
  <!-- Blender "eye/lens" logo mark -->
  <g transform="translate(150,92)">
    <circle cx="0" cy="0" r="44" fill="#ffffff"/>
    <circle cx="9" cy="7" r="34" fill="#2a7fd4"/>
    <circle cx="-7" cy="-9" r="12" fill="#ffffff"/>
    <circle cx="36" cy="-32" r="8" fill="#ffffff"/>
  </g>
  <!-- bug overlay (malicious) -->
  <g transform="translate(292,74)" stroke="#7a1f00" stroke-width="3" fill="#7a1f00">
    <ellipse cx="0" cy="2" rx="13" ry="17"/>
    <circle cx="0" cy="-18" r="7"/>
    <line x1="-13" y1="-6" x2="-27" y2="-14"/>
    <line x1="13" y1="-6" x2="27" y2="-14"/>
    <line x1="-13" y1="4" x2="-29" y2="4"/>
    <line x1="13" y1="4" x2="29" y2="4"/>
    <line x1="-13" y1="14" x2="-27" y2="22"/>
    <line x1="13" y1="14" x2="27" y2="22"/>
  </g>
  <text x="20" y="34" font-family="Helvetica,Arial,sans-serif" font-size="19" font-weight="bold" fill="#ffffff">Blender</text>
</svg>
