<svg xmlns="http://www.w3.org/2000/svg" viewBox="0 0 400 180">
  <defs>
    <linearGradient id="g" x1="0" y1="0" x2="1" y2="1">
      <stop offset="0" stop-color="#2a3a8f"/>
      <stop offset="1" stop-color="#3b7bd5"/>
    </linearGradient>
  </defs>
  <rect width="400" height="180" fill="url(#g)"/>
  <circle cx="340" cy="40" r="72" fill="#ffffff" opacity="0.06"/>
  <circle cx="55" cy="150" r="46" fill="#ffffff" opacity="0.06"/>
  <!-- database stack -->
  <g transform="translate(250,44)" fill="#ffffff">
    <ellipse cx="46" cy="10" rx="46" ry="14" opacity="0.95"/>
    <path d="M0 10 v26 a46 14 0 0 0 92 0 v-26 a46 14 0 0 1 -92 0 z" opacity="0.75"/>
    <path d="M0 36 v26 a46 14 0 0 0 92 0 v-26 a46 14 0 0 1 -92 0 z" opacity="0.55"/>
    <path d="M0 62 v26 a46 14 0 0 0 92 0 v-26 a46 14 0 0 1 -92 0 z" opacity="0.4"/>
  </g>
  <!-- exposure / open padlock -->
  <g transform="translate(258,150)" fill="none" stroke="#ffd54f" stroke-width="5" stroke-linecap="round">
    <rect x="0" y="10" width="30" height="22" rx="3" fill="#ffd54f" stroke="none"/>
    <path d="M6 10 v-6 a9 9 0 0 1 18 0"/>
  </g>
  <text x="22" y="44" font-family="Helvetica,Arial,sans-serif" font-size="19" font-weight="bold" fill="#ffffff">Dynamics 365</text>
  <text x="22" y="70" font-family="Helvetica,Arial,sans-serif" font-size="13" fill="#dfe7f5">Dataverse data-exposure audit</text>
  <text x="22" y="150" font-family="monospace" font-size="12" fill="#bcd0f0">GET /_api/contacts</text>
</svg>
