<svg xmlns="http://www.w3.org/2000/svg" viewBox="0 0 400 180">
  <defs>
    <linearGradient id="g" x1="0" y1="0" x2="1" y2="1">
      <stop offset="0" stop-color="#16305a"/>
      <stop offset="1" stop-color="#2f6fc0"/>
    </linearGradient>
  </defs>
  <rect width="400" height="180" fill="url(#g)"/>
  <circle cx="60" cy="150" r="54" fill="#ffffff" opacity="0.06"/>
  <circle cx="350" cy="35" r="60" fill="#ffffff" opacity="0.06"/>
  <!-- Zoom logo mark: blue rounded square with white camera -->
  <g transform="translate(38,54)">
    <rect x="0" y="0" width="96" height="72" rx="18" fill="#2d8cff"/>
    <rect x="18" y="24" width="40" height="30" rx="7" fill="#ffffff"/>
    <polygon points="60,32 80,22 80,56 60,46" fill="#ffffff"/>
  </g>
  <!-- arrow -->
  <path d="M150 90 h44 m-10 -9 l10 9 l-10 9" fill="none" stroke="#9cffb3" stroke-width="4" stroke-linecap="round" stroke-linejoin="round"/>
  <!-- terminal -->
  <rect x="214" y="48" width="150" height="92" rx="8" fill="#0d1b2e"/>
  <circle cx="228" cy="62" r="3.5" fill="#ff5f56"/>
  <circle cx="240" cy="62" r="3.5" fill="#ffbd2e"/>
  <circle cx="252" cy="62" r="3.5" fill="#27c93f"/>
  <text x="226" y="94" font-family="monospace" font-size="12.5" fill="#9cffb3">&gt; powershell</text>
  <text x="226" y="113" font-family="monospace" font-size="12.5" fill="#9cffb3">rundll32…</text>
  <text x="20" y="34" font-family="Helvetica,Arial,sans-serif" font-size="19" font-weight="bold" fill="#ffffff">Fake Zoom</text>
</svg>
