<svg xmlns="http://www.w3.org/2000/svg" viewBox="0 0 400 180">
  <defs>
    <linearGradient id="g" x1="0" y1="0" x2="1" y2="1">
      <stop offset="0" stop-color="#4b1f78"/>
      <stop offset="1" stop-color="#a333c8"/>
    </linearGradient>
  </defs>
  <rect width="400" height="180" fill="url(#g)"/>
  <circle cx="330" cy="40" r="72" fill="#ffffff" opacity="0.06"/>
  <circle cx="55" cy="155" r="48" fill="#ffffff" opacity="0.06"/>
  <!-- terminal window -->
  <rect x="34" y="52" width="210" height="96" rx="8" fill="#1b1c2e" opacity="0.94"/>
  <circle cx="50" cy="67" r="4" fill="#ff5f56"/>
  <circle cx="64" cy="67" r="4" fill="#ffbd2e"/>
  <circle cx="78" cy="67" r="4" fill="#27c93f"/>
  <text x="48" y="98" font-family="monospace" font-size="12" fill="#9cffb3">&gt; irm use-code.com</text>
  <text x="62" y="120" font-family="monospace" font-size="12" fill="#9cffb3">| iex</text>
  <!-- Claude / Anthropic spark logo -->
  <g transform="translate(312,96)" stroke="#e8c4a8" stroke-width="6" stroke-linecap="round">
    <line x1="0" y1="0" x2="30" y2="0"/>
    <line x1="0" y1="0" x2="26" y2="15"/>
    <line x1="0" y1="0" x2="15" y2="26"/>
    <line x1="0" y1="0" x2="0" y2="30"/>
    <line x1="0" y1="0" x2="-15" y2="26"/>
    <line x1="0" y1="0" x2="-26" y2="15"/>
    <line x1="0" y1="0" x2="-30" y2="0"/>
    <line x1="0" y1="0" x2="-26" y2="-15"/>
    <line x1="0" y1="0" x2="-15" y2="-26"/>
    <line x1="0" y1="0" x2="0" y2="-30"/>
    <line x1="0" y1="0" x2="15" y2="-26"/>
    <line x1="0" y1="0" x2="26" y2="-15"/>
  </g>
  <text x="20" y="34" font-family="Helvetica,Arial,sans-serif" font-size="19" font-weight="bold" fill="#ffffff">Fake Claude</text>
</svg>
